<svg version="1.1" id="Layer_1" xmlns="http://www.w3.org/2000/svg" xmlns:xlink="http://www.w3.org/1999/xlink" x="0px" y="0px"
	 width="100%" viewBox="0 0 1024 1024" enable-background="new 0 0 1024 1024" xml:space="preserve">
<path fill="#010000" opacity="1.000000" stroke="none" 
	d="
M473.000000,1025.000000 
	C315.333344,1025.000000 158.166672,1025.000000 1.000000,1025.000000 
	C1.000000,683.666687 1.000000,342.333344 1.000000,1.000000 
	C342.333344,1.000000 683.666687,1.000000 1025.000000,1.000000 
	C1025.000000,342.333344 1025.000000,683.666687 1025.000000,1025.000000 
	C841.166687,1025.000000 657.333313,1025.000000 473.000000,1025.000000 
M493.010193,647.505371 
	C493.261169,647.740784 493.512177,647.976135 494.495087,648.390747 
	C495.247986,648.392273 496.000916,648.393799 497.122803,648.693542 
	C497.418732,648.824341 497.728058,648.878174 498.898193,649.021912 
	C505.879669,649.052673 505.872955,649.052673 505.869141,642.327209 
	C505.863678,632.674255 505.869415,623.021301 505.869934,613.368347 
	C505.870331,606.094971 505.869995,598.821594 505.869995,591.078491 
	C512.855896,591.078491 519.269226,591.078491 525.926086,591.078491 
	C525.926086,587.209534 525.926086,583.817322 525.926086,580.218994 
	C508.185333,580.218994 490.651672,580.218994 473.140015,580.218994 
	C473.140015,583.923828 473.140015,587.306702 473.140015,591.162842 
	C479.909302,591.162842 486.318726,591.162842 493.131409,591.162842 
	C493.131409,610.087708 493.131409,628.528381 493.010193,647.505371 
M633.122437,650.793823 
	C631.067627,653.843567 629.012756,656.893250 626.169556,659.974915 
	C623.310730,661.154663 620.210754,661.950806 617.629761,663.572754 
	C587.999023,682.193787 555.693420,692.429443 520.791443,693.921326 
	C488.518433,695.300842 457.689209,688.934875 428.653809,674.594604 
	C414.492676,667.600586 400.856628,659.731018 389.031921,648.808228 
	C389.031921,648.808228 388.860535,648.798279 389.942444,648.773010 
	C390.292816,648.687012 390.643158,648.601013 391.914398,648.698425 
	C402.738007,648.670410 413.562561,648.704285 424.384186,648.543213 
	C425.892242,648.520813 427.386078,647.539307 429.030975,646.097168 
	C429.030975,643.501221 429.030975,640.905273 429.030975,637.839966 
	C418.669373,637.839966 408.924042,637.839966 399.120026,637.941223 
	C399.120026,637.941223 399.338837,638.011047 398.893616,637.030151 
	C398.893616,630.788391 398.893616,624.546631 398.893616,617.775269 
	C406.727234,617.775269 414.121033,617.775269 421.645264,617.775269 
	C421.645264,614.270081 421.645264,611.303528 421.645264,607.886475 
	C414.126892,607.886475 406.694916,607.886475 399.021027,607.886475 
	C399.021027,602.047607 399.021027,596.660034 399.021027,590.681335 
	C408.845215,590.681335 418.384613,590.681335 428.082275,590.681335 
	C428.082275,586.819275 428.082275,583.549927 428.082275,580.075073 
	C413.967377,580.075073 400.044067,580.075073 385.780426,580.075073 
	C385.780426,602.286316 385.780426,624.250793 385.135010,645.674622 
	C373.434479,634.487915 362.341919,622.706726 353.887573,608.851868 
	C346.652771,596.995605 340.248688,584.632324 332.958496,571.563477 
	C326.380554,573.657410 318.729431,575.818665 311.285797,578.546021 
	C304.895294,580.887512 304.532562,582.287659 307.292114,588.613403 
	C314.904236,606.062866 324.292358,622.451355 335.859253,637.629089 
	C360.567078,670.049927 392.000580,693.758057 429.556335,709.083130 
	C466.338745,724.092712 504.725922,728.491760 544.062622,722.998840 
	C576.577393,718.458435 606.828796,707.506714 634.381958,689.405151 
	C652.726990,677.352966 669.116638,663.099792 683.297913,646.352722 
	C698.569397,628.318298 710.466858,608.200317 719.914062,586.576599 
	C721.560181,582.808777 720.596558,580.586182 716.802490,579.317932 
	C709.706421,576.946045 702.615662,574.557251 695.540283,572.124451 
	C692.541016,571.093201 691.322876,572.281311 690.059631,575.107727 
	C686.542542,582.977173 682.835693,590.798950 678.601990,598.299866 
	C674.781128,605.069275 670.165161,611.389832 665.293579,618.202942 
	C660.845276,624.041687 656.396973,629.880493 651.315979,636.089172 
	C644.616943,641.410889 637.145264,641.485046 629.668579,638.560974 
	C625.467407,636.917969 623.659424,633.082947 624.016785,627.862976 
	C634.627808,627.862976 645.173950,627.862976 655.910461,627.862976 
	C655.910461,624.148743 656.135132,620.990967 655.873352,617.873962 
	C654.351746,599.754211 636.431335,591.071960 621.122681,600.973877 
	C612.112549,606.801758 608.296509,618.814941 611.190063,632.242310 
	C613.461487,642.782410 620.171326,648.303101 633.122437,650.793823 
M687.412354,543.598572 
	C732.927551,564.466248 778.442688,585.333923 823.957886,606.201538 
	C824.180786,605.797729 824.403748,605.393860 824.626709,604.990051 
	C820.608582,602.126160 816.680481,599.125183 812.557739,596.420837 
	C787.002502,579.657898 761.409851,562.951904 735.814087,546.250854 
	C730.462219,542.758850 729.744751,540.375732 732.367859,534.326721 
	C732.523987,533.966492 732.242432,533.416382 732.281311,532.189148 
	C733.164429,526.970886 734.742737,521.761230 734.807678,516.532837 
	C735.058899,496.301514 735.752563,476.125092 731.306274,456.016205 
	C726.634644,434.888092 719.737000,414.740692 709.467529,395.794098 
	C697.007324,372.805908 680.646118,353.009125 661.255371,335.310181 
	C634.712341,311.082977 604.032898,294.826721 569.652283,285.858002 
	C554.536133,281.914734 538.583252,281.178833 522.342834,278.502716 
	C509.465088,279.290741 496.562866,279.799805 483.714844,280.926575 
	C459.239441,283.073151 436.282867,290.715973 414.333221,301.417938 
	C390.007690,313.278351 368.930756,329.590637 350.306091,349.170380 
	C332.462646,367.928833 318.540497,389.280945 308.282532,412.982117 
	C301.796326,427.968658 297.605682,443.594208 294.550598,459.730499 
	C289.973358,483.906281 289.821198,507.914368 294.118866,531.937866 
	C295.476929,539.529236 293.124054,543.532532 286.987976,547.567383 
	C260.035431,565.290283 233.386658,583.475098 206.622025,601.483948 
	C204.287277,603.054871 201.910873,604.563843 199.553818,606.101562 
	C200.802887,606.734741 201.584000,606.584900 202.288620,606.265991 
	C234.406448,591.731689 266.510529,577.167053 298.631470,562.639648 
	C333.034241,547.080200 367.346710,531.315308 401.892578,516.079834 
	C437.795746,500.245636 473.916656,484.903992 510.005646,469.495239 
	C511.868958,468.699646 514.641846,468.567566 516.462891,469.352448 
	C572.347961,493.440094 628.166809,517.681274 684.568115,542.192871 
	C685.365540,542.484009 686.163025,542.775208 687.412354,543.598572 
M562.852112,617.609070 
	C562.744446,605.877441 559.039185,599.765686 550.543030,598.073486 
	C541.349976,596.242432 532.487854,597.570190 523.685486,601.639893 
	C524.618408,604.688782 525.476074,607.491760 526.401978,610.517578 
	C529.089355,609.644775 531.387512,608.716736 533.773254,608.174194 
	C536.193420,607.623962 538.695496,607.211548 541.169800,607.164429 
	C548.143250,607.031616 550.683594,610.161133 549.404419,617.379761 
	C546.849854,617.548523 544.136841,617.385132 541.596130,617.970032 
	C536.939758,619.041870 532.036926,619.882629 527.868652,622.040283 
	C521.411072,625.382935 519.314453,632.634216 521.515991,640.303040 
	C523.268616,646.407898 528.324585,650.428162 535.562012,649.764893 
	C541.102417,649.257202 546.484802,647.025146 552.545288,645.396790 
	C555.216248,649.033203 560.205139,649.828308 566.274780,649.128174 
	C566.147949,646.511292 566.920288,642.625183 565.749084,641.906616 
	C561.856628,639.518250 563.073303,636.145508 562.938354,633.068237 
	C562.726990,628.246765 562.865173,623.410095 562.852112,617.609070 
M460.445892,631.181885 
	C464.202301,635.914124 463.222534,639.756958 457.382507,640.085510 
	C451.302704,640.427490 445.126129,639.049500 438.289581,638.351868 
	C437.607178,639.956238 436.475403,642.617249 435.234161,645.535461 
	C445.472382,650.507996 455.365448,651.822327 465.594666,647.991516 
	C471.881317,645.637329 474.877167,640.897583 474.976379,634.149780 
	C475.075104,627.434692 471.725525,623.149719 465.794403,620.758301 
	C462.113037,619.274048 458.045807,618.643677 454.540100,616.864746 
	C452.345428,615.750977 449.427185,613.246277 449.386414,611.311890 
	C449.309753,607.675476 453.116486,606.895203 456.120483,607.189331 
	C460.653748,607.633179 465.121552,608.745911 470.156250,609.673645 
	C471.194672,607.453674 472.426239,604.820618 473.863922,601.747009 
	C465.050598,597.091797 456.368958,595.799561 447.240570,598.888306 
	C440.462097,601.181946 437.159119,605.501099 436.846405,611.982849 
	C436.542511,618.281982 439.610443,623.088806 446.166138,625.873169 
	C450.580780,627.748230 455.176453,629.196960 460.445892,631.181885 
M593.618103,650.049988 
	C597.676208,649.567688 601.734314,649.085449 606.281372,648.545044 
	C605.693848,644.828186 605.241211,641.964478 604.775330,639.016968 
	C601.998779,639.358887 599.466675,640.382263 597.488770,639.728699 
	C595.176270,638.964539 591.703430,636.851379 591.584656,635.127075 
	C590.983276,626.396851 591.307922,617.602905 591.307922,608.327148 
	C596.082581,608.327148 600.349182,608.327148 604.852905,608.327148 
	C604.852905,604.877014 604.852905,601.941711 604.852905,598.343689 
	C600.312683,598.343689 595.903931,598.343689 591.194458,598.343689 
	C591.194458,593.220764 591.194458,588.757935 591.194458,583.761597 
	C587.260925,584.382202 583.715271,584.941528 580.030884,585.522827 
	C579.698792,589.843872 579.384949,593.927368 579.064331,598.099976 
	C575.822632,598.463135 573.066650,598.771851 570.260986,599.086121 
	C570.260986,602.099731 570.260986,604.869141 570.260986,607.874390 
	C573.213867,608.059937 575.930176,608.230591 578.870789,608.415344 
	C578.870789,617.845886 578.874817,626.660400 578.869751,635.474915 
	C578.864319,644.946594 583.087280,649.394958 593.618103,650.049988 
M522.966492,524.136902 
	C519.677979,524.059326 518.047058,525.645264 518.062195,528.954590 
	C518.081177,533.104126 518.141602,537.255981 518.029114,541.402649 
	C517.948486,544.377686 519.453735,545.725342 522.194092,545.794250 
	C526.839111,545.911133 531.487793,545.890442 536.135071,545.905212 
	C539.184692,545.914917 540.754517,544.331848 540.793945,541.317505 
	C540.846008,537.334595 540.765015,533.349670 540.832458,529.367188 
	C540.896667,525.571533 539.082520,523.941284 535.332214,524.063232 
	C531.518188,524.187256 527.697754,524.115906 522.966492,524.136902 
M485.029877,530.780762 
	C485.040344,534.268921 484.608093,537.840637 485.244537,541.210571 
	C485.571930,542.944031 487.661072,545.448975 489.201843,545.643433 
	C493.945557,546.242371 498.838104,546.195801 503.606750,545.727234 
	C504.974304,545.592834 507.050415,543.263428 507.187317,541.790344 
	C507.583862,537.524292 507.019073,533.179138 507.102997,528.870300 
	C507.168335,525.516174 505.929565,523.941284 502.456299,524.063660 
	C498.640839,524.198120 494.810822,524.214966 490.997803,524.044617 
	C486.801971,523.856995 484.687836,525.532471 485.029877,530.780762 
M532.385559,570.931213 
	C541.098267,570.915161 541.512146,570.375977 540.321716,561.295776 
	C540.063110,559.323547 540.419556,557.233948 539.932190,555.342773 
	C539.652893,554.259277 538.262817,552.691772 537.342468,552.670776 
	C532.025818,552.549561 526.688110,552.670288 521.387024,553.085632 
	C520.227051,553.176514 518.408691,554.653381 518.210022,555.734009 
	C515.771545,568.998779 517.357056,570.888550 530.423828,570.927917 
	C530.757019,570.928894 531.090210,570.929565 532.385559,570.931213 
M492.583801,552.923828 
	C484.995483,552.956787 484.994019,552.956787 485.007812,560.426514 
	C485.012115,562.753723 484.611023,565.190979 485.187286,567.368347 
	C485.553619,568.752258 487.307159,570.661499 488.562561,570.760376 
	C493.518646,571.150452 498.542175,571.150269 503.497803,570.755798 
	C504.757202,570.655579 506.767914,568.657288 506.893097,567.380127 
	C508.314270,552.884705 508.234100,552.876831 494.053864,552.917236 
	C493.887634,552.917664 493.721405,552.918762 492.583801,552.923828 
M828.492432,607.477173 
	C828.492432,607.477173 828.515442,607.522644 828.492432,607.477173 
M826.617310,606.532410 
	C826.617310,606.532410 826.419739,606.429138 826.419739,606.429138 
	C826.419739,606.429138 826.453369,606.630859 826.617310,606.532410 
z"/>
<path fill="#353535" opacity="1.000000" stroke="none" 
	d="
M683.995972,541.898682 
	C628.166809,517.681274 572.347961,493.440094 516.462891,469.352448 
	C514.641846,468.567566 511.868958,468.699646 510.005646,469.495239 
	C473.916656,484.903992 437.795746,500.245636 401.892578,516.079834 
	C367.346710,531.315308 333.034241,547.080200 298.631470,562.639648 
	C266.510529,577.167053 234.406448,591.731689 202.288620,606.265991 
	C201.584000,606.584900 200.802887,606.734741 199.553818,606.101562 
	C201.910873,604.563843 204.287277,603.054871 206.622025,601.483948 
	C233.386658,583.475098 260.035431,565.290283 286.987976,547.567383 
	C293.124054,543.532532 295.476929,539.529236 294.118866,531.937866 
	C289.821198,507.914368 289.973358,483.906281 294.550598,459.730499 
	C297.605682,443.594208 301.796326,427.968658 308.282532,412.982117 
	C318.540497,389.280945 332.462646,367.928833 350.306091,349.170380 
	C368.930756,329.590637 390.007690,313.278351 414.333221,301.417938 
	C436.282867,290.715973 459.239441,283.073151 483.714844,280.926575 
	C496.562866,279.799805 509.465088,279.290741 522.396851,278.994202 
	C520.055115,280.105011 517.659424,280.724335 515.263672,281.343689 
	C515.214722,281.817139 515.165833,282.290588 515.116882,282.764038 
	C516.664429,283.866394 518.061890,285.430267 519.785645,285.990845 
	C527.076538,288.361969 533.447632,292.003082 538.459106,297.917938 
	C540.721191,300.587799 543.428467,301.266815 546.933899,299.952789 
	C552.056946,298.032379 557.312378,296.384186 562.628052,295.104095 
	C564.415894,294.673523 566.770935,295.302582 568.496521,296.177551 
	C572.147766,298.028870 575.377319,300.759064 579.096313,302.420441 
	C589.803162,307.203522 594.165894,316.140991 595.654541,326.824463 
	C593.773926,326.093506 592.216064,325.511566 590.701843,324.832336 
	C565.602051,313.574158 539.099121,308.132385 511.794922,308.371033 
	C497.665985,308.494507 483.470734,311.360565 469.472534,313.906097 
	C442.731934,318.768768 419.377319,331.411133 397.517670,347.025543 
	C384.740723,356.152161 373.848907,367.273926 363.905212,379.413605 
	C350.187714,396.160553 339.462952,414.573608 331.864410,434.834961 
	C323.209106,457.914154 319.898621,481.806915 321.004333,506.349976 
	C321.246246,511.719604 322.001190,517.066101 322.555420,522.790344 
	C323.667114,522.229370 324.275085,521.999634 324.800201,521.646606 
	C346.195557,507.263214 367.490448,492.727051 389.044189,478.585327 
	C393.824524,475.448883 395.375580,471.980927 395.248383,466.391663 
	C394.873169,449.902863 395.148682,433.399719 395.118103,416.902283 
	C395.110046,412.558655 395.884796,409.771912 401.486633,409.986572 
	C412.801270,410.420227 424.144806,410.101959 435.476410,410.092285 
	C442.090271,410.086639 442.095734,410.085327 442.100159,416.530426 
	C442.105835,424.784149 442.101562,433.037872 442.101562,442.179871 
	C444.393372,440.810760 445.813965,440.057251 447.135559,439.158203 
	C466.949371,425.679382 486.683868,412.081421 506.657532,398.844147 
	C508.631256,397.536163 512.776306,397.255219 514.679321,398.455078 
	C526.923889,406.175537 538.810242,414.462860 550.840698,422.524567 
	C591.636902,449.862183 632.462830,477.155487 673.230042,504.536163 
	C680.634216,509.509094 687.815552,514.813660 694.637146,519.974365 
	C692.186951,519.996033 690.144165,519.735596 688.232544,520.122803 
	C687.075806,520.357056 685.292175,521.517578 685.210266,522.394653 
	C684.604736,528.877258 684.356567,535.393188 683.995972,541.898682 
z"/>
<path fill="#1596D5" opacity="1.000000" stroke="none" 
	d="
M665.899841,617.908386 
	C670.165161,611.389832 674.781128,605.069275 678.601990,598.299866 
	C682.835693,590.798950 686.542542,582.977173 690.059631,575.107727 
	C691.322876,572.281311 692.541016,571.093201 695.540283,572.124451 
	C702.615662,574.557251 709.706421,576.946045 716.802490,579.317932 
	C720.596558,580.586182 721.560181,582.808777 719.914062,586.576599 
	C710.466858,608.200317 698.569397,628.318298 683.297913,646.352722 
	C669.116638,663.099792 652.726990,677.352966 634.381958,689.405151 
	C606.828796,707.506714 576.577393,718.458435 544.062622,722.998840 
	C504.725922,728.491760 466.338745,724.092712 429.556335,709.083130 
	C392.000580,693.758057 360.567078,670.049927 335.859253,637.629089 
	C324.292358,622.451355 314.904236,606.062866 307.292114,588.613403 
	C304.532562,582.287659 304.895294,580.887512 311.285797,578.546021 
	C318.729431,575.818665 326.380554,573.657410 332.958496,571.563477 
	C340.248688,584.632324 346.652771,596.995605 353.887573,608.851868 
	C362.341919,622.706726 373.434479,634.487915 385.589417,646.134888 
	C387.008087,647.343872 387.972321,648.092590 388.980225,648.845154 
	C389.023895,648.849060 389.154602,648.921204 389.154602,648.921204 
	C400.856628,659.731018 414.492676,667.600586 428.653809,674.594604 
	C457.689209,688.934875 488.518433,695.300842 520.791443,693.921326 
	C555.693420,692.429443 587.999023,682.193787 617.629761,663.572754 
	C620.210754,661.950806 623.310730,661.154663 627.024780,660.066284 
	C639.161255,660.185425 650.442627,660.191101 661.723694,660.257751 
	C664.248596,660.272644 666.301758,660.204529 666.245972,656.708130 
	C666.039551,643.776367 666.001282,630.841858 665.899841,617.908386 
z"/>
<path fill="#323233" opacity="1.000000" stroke="none" 
	d="
M684.282043,542.045776 
	C684.356567,535.393188 684.604736,528.877258 685.210266,522.394653 
	C685.292175,521.517578 687.075806,520.357056 688.232544,520.122803 
	C690.144165,519.735596 692.186951,519.996033 694.985596,520.023682 
	C698.256836,521.291443 700.716919,522.519043 703.394470,523.855164 
	C706.507202,505.556976 706.030457,487.879791 703.241699,470.037262 
	C697.752747,434.917938 683.299133,404.084686 660.459595,377.062683 
	C649.474548,364.065887 637.202820,352.405334 622.817932,343.196228 
	C614.014404,337.560242 604.946655,332.336914 595.997559,326.928253 
	C594.165894,316.140991 589.803162,307.203522 579.096313,302.420441 
	C575.377319,300.759064 572.147766,298.028870 568.496521,296.177551 
	C566.770935,295.302582 564.415894,294.673523 562.628052,295.104095 
	C557.312378,296.384186 552.056946,298.032379 546.933899,299.952789 
	C543.428467,301.266815 540.721191,300.587799 538.459106,297.917938 
	C533.447632,292.003082 527.076538,288.361969 519.785645,285.990845 
	C518.061890,285.430267 516.664429,283.866394 515.116882,282.764038 
	C515.165833,282.290588 515.214722,281.817139 515.263672,281.343689 
	C517.659424,280.724335 520.055115,280.105011 522.730591,279.236145 
	C538.583252,281.178833 554.536133,281.914734 569.652283,285.858002 
	C604.032898,294.826721 634.712341,311.082977 661.255371,335.310181 
	C680.646118,353.009125 697.007324,372.805908 709.467529,395.794098 
	C719.737000,414.740692 726.634644,434.888092 731.306274,456.016205 
	C735.752563,476.125092 735.058899,496.301514 734.807678,516.532837 
	C734.742737,521.761230 733.164429,526.970886 731.768555,532.584839 
	C727.073303,534.173523 722.910828,535.443665 718.701111,536.531067 
	C716.075623,537.209229 713.326355,538.240356 710.723877,538.022522 
	C702.227905,537.311523 694.480286,539.505005 686.960449,543.066406 
	C686.163025,542.775208 685.365540,542.484009 684.282043,542.045776 
z"/>
<path fill="#BAE1F4" opacity="1.000000" stroke="none" 
	d="
M388.936584,648.841248 
	C387.972321,648.092590 387.008087,647.343872 385.912140,646.405212 
	C385.780426,624.250793 385.780426,602.286316 385.780426,580.075073 
	C400.044067,580.075073 413.967377,580.075073 428.082275,580.075073 
	C428.082275,583.549927 428.082275,586.819275 428.082275,590.681335 
	C418.384613,590.681335 408.845215,590.681335 399.021027,590.681335 
	C399.021027,596.660034 399.021027,602.047607 399.021027,607.886475 
	C406.694916,607.886475 414.126892,607.886475 421.645264,607.886475 
	C421.645264,611.303528 421.645264,614.270081 421.645264,617.775269 
	C414.121033,617.775269 406.727234,617.775269 398.893616,617.775269 
	C398.893616,624.546631 398.893616,630.788391 399.091492,637.489746 
	C399.289337,637.949280 399.178711,637.839966 399.178711,637.839966 
	C408.924042,637.839966 418.669373,637.839966 429.030975,637.839966 
	C429.030975,640.905273 429.030975,643.501221 428.497314,646.553650 
	C417.245544,647.012512 406.526703,646.952820 395.810211,647.084045 
	C394.199036,647.103760 392.598816,648.015747 390.993500,648.515015 
	C390.643158,648.601013 390.292816,648.687012 389.429413,648.789795 
	C388.916382,648.806580 388.936584,648.841248 388.936584,648.841248 
z"/>
<path fill="#353535" opacity="1.000000" stroke="none" 
	d="
M687.186401,543.332520 
	C694.480286,539.505005 702.227905,537.311523 710.723877,538.022522 
	C713.326355,538.240356 716.075623,537.209229 718.701111,536.531067 
	C722.910828,535.443665 727.073303,534.173523 731.710083,532.967651 
	C732.242432,533.416382 732.523987,533.966492 732.367859,534.326721 
	C729.744751,540.375732 730.462219,542.758850 735.814087,546.250854 
	C761.409851,562.951904 787.002502,579.657898 812.557739,596.420837 
	C816.680481,599.125183 820.608582,602.126160 824.626709,604.990051 
	C824.403748,605.393860 824.180786,605.797729 823.957886,606.201538 
	C778.442688,585.333923 732.927551,564.466248 687.186401,543.332520 
z"/>
<path fill="#1092D2" opacity="1.000000" stroke="none" 
	d="
M562.853638,618.094482 
	C562.865173,623.410095 562.726990,628.246765 562.938354,633.068237 
	C563.073303,636.145508 561.856628,639.518250 565.749084,641.906616 
	C566.920288,642.625183 566.147949,646.511292 566.274780,649.128174 
	C560.205139,649.828308 555.216248,649.033203 552.545288,645.396790 
	C546.484802,647.025146 541.102417,649.257202 535.562012,649.764893 
	C528.324585,650.428162 523.268616,646.407898 521.515991,640.303040 
	C519.314453,632.634216 521.411072,625.382935 527.868652,622.040283 
	C532.036926,619.882629 536.939758,619.041870 541.596130,617.970032 
	C544.136841,617.385132 546.849854,617.548523 549.404419,617.379761 
	C550.683594,610.161133 548.143250,607.031616 541.169800,607.164429 
	C538.695496,607.211548 536.193420,607.623962 533.773254,608.174194 
	C531.387512,608.716736 529.089355,609.644775 526.401978,610.517578 
	C525.476074,607.491760 524.618408,604.688782 523.685486,601.639893 
	C532.487854,597.570190 541.349976,596.242432 550.543030,598.073486 
	C559.039185,599.765686 562.744446,605.877441 562.853638,618.094482 
M548.972412,637.005066 
	C549.471375,633.256042 549.970337,629.507080 550.669373,624.254761 
	C545.234985,625.662231 541.000793,626.250549 537.222412,627.889526 
	C533.871948,629.343018 532.732483,632.690857 533.974182,636.307556 
	C535.208618,639.902893 538.291260,640.876404 541.575500,640.291077 
	C543.914307,639.874146 546.073914,638.451721 548.972412,637.005066 
z"/>
<path fill="#1092D2" opacity="1.000000" stroke="none" 
	d="
M632.886902,650.093994 
	C620.171326,648.303101 613.461487,642.782410 611.190063,632.242310 
	C608.296509,618.814941 612.112549,606.801758 621.122681,600.973877 
	C636.431335,591.071960 654.351746,599.754211 655.873352,617.873962 
	C656.135132,620.990967 655.910461,624.148743 655.910461,627.862976 
	C645.173950,627.862976 634.627808,627.862976 624.016785,627.862976 
	C623.659424,633.082947 625.467407,636.917969 629.668579,638.560974 
	C637.145264,641.485046 644.616943,641.410889 651.653625,636.335938 
	C652.223755,637.722595 652.482056,638.857910 652.684448,640.003052 
	C653.737732,645.961914 652.970093,647.466980 646.950745,648.630066 
	C642.340637,649.520874 637.580383,649.634644 632.886902,650.093994 
M630.460205,607.565735 
	C625.575439,609.657898 623.757202,613.639709 623.449036,618.857056 
	C630.231689,618.857056 636.837341,618.857056 643.448425,618.857056 
	C643.234131,609.467163 640.196167,606.673523 630.460205,607.565735 
z"/>
<path fill="#1092D2" opacity="1.000000" stroke="none" 
	d="
M496.753815,648.395264 
	C496.000916,648.393799 495.247986,648.392273 494.071106,648.072754 
	C493.514557,647.466980 493.342651,647.205139 493.131409,646.969116 
	C493.131409,628.528381 493.131409,610.087708 493.131409,591.162842 
	C486.318726,591.162842 479.909302,591.162842 473.140015,591.162842 
	C473.140015,587.306702 473.140015,583.923828 473.140015,580.218994 
	C490.651672,580.218994 508.185333,580.218994 525.926086,580.218994 
	C525.926086,583.817322 525.926086,587.209534 525.926086,591.078491 
	C519.269226,591.078491 512.855896,591.078491 505.869995,591.078491 
	C505.869995,598.821594 505.870331,606.094971 505.869934,613.368347 
	C505.869415,623.021301 505.863678,632.674255 505.869141,642.327209 
	C505.872955,649.052673 505.879669,649.052673 498.316528,648.733032 
	C497.407837,648.427917 497.080811,648.411621 496.753815,648.395264 
z"/>
<path fill="#B4DCF2" opacity="1.000000" stroke="none" 
	d="
M460.068512,631.009155 
	C455.176453,629.196960 450.580780,627.748230 446.166138,625.873169 
	C439.610443,623.088806 436.542511,618.281982 436.846405,611.982849 
	C437.159119,605.501099 440.462097,601.181946 447.240570,598.888306 
	C456.368958,595.799561 465.050598,597.091797 473.863922,601.747009 
	C472.426239,604.820618 471.194672,607.453674 470.156250,609.673645 
	C465.121552,608.745911 460.653748,607.633179 456.120483,607.189331 
	C453.116486,606.895203 449.309753,607.675476 449.386414,611.311890 
	C449.427185,613.246277 452.345428,615.750977 454.540100,616.864746 
	C458.045807,618.643677 462.113037,619.274048 465.794403,620.758301 
	C471.725525,623.149719 475.075104,627.434692 474.976379,634.149780 
	C474.877167,640.897583 471.881317,645.637329 465.594666,647.991516 
	C455.365448,651.822327 445.472382,650.507996 435.234161,645.535461 
	C436.475403,642.617249 437.607178,639.956238 438.289581,638.351868 
	C445.126129,639.049500 451.302704,640.427490 457.382507,640.085510 
	C463.222534,639.756958 464.202301,635.914124 460.068512,631.009155 
z"/>
<path fill="#1596D5" opacity="1.000000" stroke="none" 
	d="
M593.163086,650.043823 
	C583.087280,649.394958 578.864319,644.946594 578.869751,635.474915 
	C578.874817,626.660400 578.870789,617.845886 578.870789,608.415344 
	C575.930176,608.230591 573.213867,608.059937 570.260986,607.874390 
	C570.260986,604.869141 570.260986,602.099731 570.260986,599.086121 
	C573.066650,598.771851 575.822632,598.463135 579.064331,598.099976 
	C579.384949,593.927368 579.698792,589.843872 580.030884,585.522827 
	C583.715271,584.941528 587.260925,584.382202 591.194458,583.761597 
	C591.194458,588.757935 591.194458,593.220764 591.194458,598.343689 
	C595.903931,598.343689 600.312683,598.343689 604.852905,598.343689 
	C604.852905,601.941711 604.852905,604.877014 604.852905,608.327148 
	C600.349182,608.327148 596.082581,608.327148 591.307922,608.327148 
	C591.307922,617.602905 590.983276,626.396851 591.584656,635.127075 
	C591.703430,636.851379 595.176270,638.964539 597.488770,639.728699 
	C599.466675,640.382263 601.998779,639.358887 604.775330,639.016968 
	C605.241211,641.964478 605.693848,644.828186 606.281372,648.545044 
	C601.734314,649.085449 597.676208,649.567688 593.163086,650.043823 
z"/>
<path fill="#165D7C" opacity="1.000000" stroke="none" 
	d="
M633.004639,650.443909 
	C637.580383,649.634644 642.340637,649.520874 646.950745,648.630066 
	C652.970093,647.466980 653.737732,645.961914 652.684448,640.003052 
	C652.482056,638.857910 652.223755,637.722595 651.969971,636.151001 
	C656.396973,629.880493 660.845276,624.041687 665.596680,618.055664 
	C666.001282,630.841858 666.039551,643.776367 666.245972,656.708130 
	C666.301758,660.204529 664.248596,660.272644 661.723694,660.257751 
	C650.442627,660.191101 639.161255,660.185425 627.418945,660.050293 
	C629.012756,656.893250 631.067627,653.843567 633.004639,650.443909 
z"/>
<path fill="#353535" opacity="1.000000" stroke="none" 
	d="
M523.423340,524.133545 
	C527.697754,524.115906 531.518188,524.187256 535.332214,524.063232 
	C539.082520,523.941284 540.896667,525.571533 540.832458,529.367188 
	C540.765015,533.349670 540.846008,537.334595 540.793945,541.317505 
	C540.754517,544.331848 539.184692,545.914917 536.135071,545.905212 
	C531.487793,545.890442 526.839111,545.911133 522.194092,545.794250 
	C519.453735,545.725342 517.948486,544.377686 518.029114,541.402649 
	C518.141602,537.255981 518.081177,533.104126 518.062195,528.954590 
	C518.047058,525.645264 519.677979,524.059326 523.423340,524.133545 
z"/>
<path fill="#353535" opacity="1.000000" stroke="none" 
	d="
M485.029877,530.322754 
	C484.687836,525.532471 486.801971,523.856995 490.997803,524.044617 
	C494.810822,524.214966 498.640839,524.198120 502.456299,524.063660 
	C505.929565,523.941284 507.168335,525.516174 507.102997,528.870300 
	C507.019073,533.179138 507.583862,537.524292 507.187317,541.790344 
	C507.050415,543.263428 504.974304,545.592834 503.606750,545.727234 
	C498.838104,546.195801 493.945557,546.242371 489.201843,545.643433 
	C487.661072,545.448975 485.571930,542.944031 485.244537,541.210571 
	C484.608093,537.840637 485.040344,534.268921 485.029877,530.322754 
z"/>
<path fill="#323233" opacity="1.000000" stroke="none" 
	d="
M531.904480,570.930786 
	C531.090210,570.929565 530.757019,570.928894 530.423828,570.927917 
	C517.357056,570.888550 515.771545,568.998779 518.210022,555.734009 
	C518.408691,554.653381 520.227051,553.176514 521.387024,553.085632 
	C526.688110,552.670288 532.025818,552.549561 537.342468,552.670776 
	C538.262817,552.691772 539.652893,554.259277 539.932190,555.342773 
	C540.419556,557.233948 540.063110,559.323547 540.321716,561.295776 
	C541.512146,570.375977 541.098267,570.915161 531.904480,570.930786 
z"/>
<path fill="#323233" opacity="1.000000" stroke="none" 
	d="
M493.069489,552.921631 
	C493.721405,552.918762 493.887634,552.917664 494.053864,552.917236 
	C508.234100,552.876831 508.314270,552.884705 506.893097,567.380127 
	C506.767914,568.657288 504.757202,570.655579 503.497803,570.755798 
	C498.542175,571.150269 493.518646,571.150452 488.562561,570.760376 
	C487.307159,570.661499 485.553619,568.752258 485.187286,567.368347 
	C484.611023,565.190979 485.012115,562.753723 485.007812,560.426514 
	C484.994019,552.956787 484.995483,552.956787 493.069489,552.921631 
z"/>
<path fill="#B4DCF2" opacity="1.000000" stroke="none" 
	d="
M391.453949,648.606689 
	C392.598816,648.015747 394.199036,647.103760 395.810211,647.084045 
	C406.526703,646.952820 417.245544,647.012512 428.425049,647.005981 
	C427.386078,647.539307 425.892242,648.520813 424.384186,648.543213 
	C413.562561,648.704285 402.738007,648.670410 391.453949,648.606689 
z"/>
<path fill="#353535" opacity="1.000000" stroke="none" 
	d="
M828.503906,607.499878 
	C828.515442,607.522644 828.492432,607.477173 828.503906,607.499878 
z"/>
<path fill="#B4DCF2" opacity="1.000000" stroke="none" 
	d="
M399.149353,637.890625 
	C399.178711,637.839966 399.289337,637.949280 399.314087,637.980164 
	C399.338837,638.011047 399.120026,637.941223 399.149353,637.890625 
z"/>
<path fill="#353535" opacity="1.000000" stroke="none" 
	d="
M826.535339,606.581665 
	C826.453369,606.630859 826.419739,606.429138 826.419739,606.429138 
	C826.419739,606.429138 826.617310,606.532410 826.535339,606.581665 
z"/>
<path fill="#165D7C" opacity="1.000000" stroke="none" 
	d="
M493.070801,647.237244 
	C493.342651,647.205139 493.514557,647.466980 493.705139,647.983154 
	C493.512177,647.976135 493.261169,647.740784 493.070801,647.237244 
z"/>
<path fill="#165D7C" opacity="1.000000" stroke="none" 
	d="
M496.938293,648.544434 
	C497.080811,648.411621 497.407837,648.427917 497.892822,648.649658 
	C497.728058,648.878174 497.418732,648.824341 496.938293,648.544434 
z"/>
<path fill="#B4DCF2" opacity="1.000000" stroke="none" 
	d="
M388.980225,648.845154 
	C388.936584,648.841248 388.916382,648.806580 388.888458,648.802429 
	C388.860535,648.798279 389.031921,648.808228 389.093262,648.864746 
	C389.154602,648.921204 389.023895,648.849060 388.980225,648.845154 
z"/>
<path fill="#010000" opacity="1.000000" stroke="none" 
	d="
M595.654541,326.824463 
	C604.946655,332.336914 614.014404,337.560242 622.817932,343.196228 
	C637.202820,352.405334 649.474548,364.065887 660.459595,377.062683 
	C683.299133,404.084686 697.752747,434.917938 703.241699,470.037262 
	C706.030457,487.879791 706.507202,505.556976 703.394470,523.855164 
	C700.716919,522.519043 698.256836,521.291443 695.448242,520.014465 
	C687.815552,514.813660 680.634216,509.509094 673.230042,504.536163 
	C632.462830,477.155487 591.636902,449.862183 550.840698,422.524567 
	C538.810242,414.462860 526.923889,406.175537 514.679321,398.455078 
	C512.776306,397.255219 508.631256,397.536163 506.657532,398.844147 
	C486.683868,412.081421 466.949371,425.679382 447.135559,439.158203 
	C445.813965,440.057251 444.393372,440.810760 442.101562,442.179871 
	C442.101562,433.037872 442.105835,424.784149 442.100159,416.530426 
	C442.095734,410.085327 442.090271,410.086639 435.476410,410.092285 
	C424.144806,410.101959 412.801270,410.420227 401.486633,409.986572 
	C395.884796,409.771912 395.110046,412.558655 395.118103,416.902283 
	C395.148682,433.399719 394.873169,449.902863 395.248383,466.391663 
	C395.375580,471.980927 393.824524,475.448883 389.044189,478.585327 
	C367.490448,492.727051 346.195557,507.263214 324.800201,521.646606 
	C324.275085,521.999634 323.667114,522.229370 322.555420,522.790344 
	C322.001190,517.066101 321.246246,511.719604 321.004333,506.349976 
	C319.898621,481.806915 323.209106,457.914154 331.864410,434.834961 
	C339.462952,414.573608 350.187714,396.160553 363.905212,379.413605 
	C373.848907,367.273926 384.740723,356.152161 397.517670,347.025543 
	C419.377319,331.411133 442.731934,318.768768 469.472534,313.906097 
	C483.470734,311.360565 497.665985,308.494507 511.794922,308.371033 
	C539.099121,308.132385 565.602051,313.574158 590.701843,324.832336 
	C592.216064,325.511566 593.773926,326.093506 595.654541,326.824463 
z"/>
<path fill="#010000" opacity="1.000000" stroke="none" 
	d="
M548.642944,637.241577 
	C546.073914,638.451721 543.914307,639.874146 541.575500,640.291077 
	C538.291260,640.876404 535.208618,639.902893 533.974182,636.307556 
	C532.732483,632.690857 533.871948,629.343018 537.222412,627.889526 
	C541.000793,626.250549 545.234985,625.662231 550.669373,624.254761 
	C549.970337,629.507080 549.471375,633.256042 548.642944,637.241577 
z"/>
<path fill="#010000" opacity="1.000000" stroke="none" 
	d="
M630.840454,607.436157 
	C640.196167,606.673523 643.234131,609.467163 643.448425,618.857056 
	C636.837341,618.857056 630.231689,618.857056 623.449036,618.857056 
	C623.757202,613.639709 625.575439,609.657898 630.840454,607.436157 
z"/>
</svg>